#!OML:ASF E:\Mandelcareful walks\Project 1\Capture day 1\Session 1\Subject1.ASF
:FULLY-SPECIFIED
:DEGREES
938
root 41.098 13.8454 -0.580366 -1.46875 114.899 -24.5142
lowerback 39.2042 0.461444 3.58592
upperback 10.4984 3.7293 -0.208778
thorax -7.18825 2.49613 -3.61307
lowerneck -36.7574 1.51609 -1.26133
upperneck 26.3219 8.45222 -13.3255
head 16.2912 1.42924 -3.55721
rclavicle 1.27222e-014 3.18055e-014
rhumerus 8.21046 37.1872 -102.569
rradius 22.5756
rwrist -21.994
rhand -19.0243 -44.15
rfingers 7.12502
rthumb 7.28173 -434.005
lclavicle 1.27222e-014 3.18055e-014
lhumerus -26.5105 -32.4466 92.2444
lradius 58.1141
lwrist 71.909
lhand -13.9409 -5.37395
lfingers 7.12502
lthumb 12.1861 24.2511
rfemur -72.728 -12.8887 14.5271
rtibia 81.254
rfoot -25.9663 -3.67087
rtoes 3.81205
lfemur -35.7923 8.0499 -11.8862
ltibia 67.0695
lfoot -32.2615 27.4754
ltoes -26.6042
939
root 41.1393 13.8448 -0.553351 -1.24016 115.636 -24.4638
lowerback 39.0607 0.497452 3.54293
upperback 10.4795 3.75915 -0.189646
thorax -7.1645 2.5119 -3.57866
lowerneck -36.8356 1.51099 -1.14741
upperneck 26.448 8.41067 -13.3262
head 16.3675 1.41636 -3.59488
rclavicle -1.27222e-014 -1.43125e-014
rhumerus 8.21802 37.1632 -102.487
rradius 22.6435
rwrist -21.9342
rhand -19.1919 -43.7882
rfingers 7.12502
rthumb 7.11989 -433.648
lclavicle -1.27222e-014 -1.43125e-014
lhumerus -26.4525 -32.1774 92.26
lradius 58.103
lwrist 71.2449
lhand -13.7767 -4.57643
lfingers 7.12502
lthumb 12.3444 25.0391
rfemur -72.7026 -13.0919 14.3173
rtibia 81.4535
rfoot -26.293 -3.95221
rtoes 3.96041
lfemur -35.9037 8.04841 -12.0065
ltibia 66.8644
lfoot -32.8885 27.0369
ltoes -25.103
940
root 41.1621 13.8404 -0.547842 -1.38271 116.118 -24.7764
lowerback 38.9394 0.567554 3.64493
upperback 10.4134 3.85292 -0.355576
thorax -7.17649 2.5562 -3.84204
lowerneck -36.614 1.3962 -1.10257
upperneck 26.6102 8.20851 -13.242
head 16.3753 1.35431 -3.61836
rclavicle 3.49861e-014 9.22361e-014
rhumerus 8.06061 36.4714 -102.681
rradius 22.4641
rwrist -21.4346
rhand -19.4352 -43.4061
rfingers 7.12502
rthumb 6.8851 -433.274
lclavicle 3.49861e-014 9.22361e-014
lhumerus -26.4921 -32.6118 92.338
lradius 57.9497
lwrist 71.2171
lhand -13.7061 -5.39012
lfingers 7.12502
lthumb 12.4125 24.2213
rfemur -72.7124 -13.1931 13.932
rtibia 81.5909
rfoot -26.5154 -4.1442
rtoes 4.16497
lfemur -36.0277 8.12409 -12.3686
ltibia 66.6446
lfoot -33.0521 27.0825
ltoes -24.173
941
root 41.1468 13.8075 -0.483844 -0.402328 117.531 -25.0772
lowerback 37.7753 0.508719 3.32996
upperback 10.2432 3.57785 -0.205337
thorax -7.02491 2.40086 -3.38516
lowerneck -36.8353 1.24656 -1.5064
upperneck 26.9607 8.17243 -12.8954
head 16.5418 1.32311 -3.42596
rclavicle -9.54166e-015 -6.36111e-015
rhumerus 8.22441 36.8043 -102.389
rradius 22.3503
rwrist -21.5284
rhand -19.5871 -43.0606
rfingers 7.12502
rthumb 6.73843 -432.933
lclavicle -9.54166e-015 -6.36111e-015
lhumerus -26.2334 -32.5992 92.3765
lradius 57.7714
lwrist 71.2094
lhand -14.0353 -5.60576
lfingers 7.12502
lthumb 12.0951 24.0247
rfemur -74.2904 -13.9699 13.854
rtibia 82.0199
rfoot -26.5316 -4.9118
rtoes 3.83441
lfemur -38.1838 7.87717 -12.806
ltibia 66.7077
lfoot -31.9253 27.561
ltoes -25.4259
942
root 41.223 13.8372 -0.51133 -1.49055 117.104 -24.67
lowerback 39.2136 0.728026 3.27206
upperback 10.4934 3.97895 -0.267421
thorax -7.19398 2.63108 -3.61145
lowerneck -36.9134 1.09466 -1.72861
upperneck 27.4562 8.06365 -12.5928
head 16.7562 1.27499 -3.30611
rclavicle 3.49861e-014 4.13472e-014
rhumerus 8.13208 36.9301 -102.317
rradius 22.3934
rwrist -21.5222
rhand -19.4163 -42.819
rfingers 7.12502
rthumb 6.90329 -432.686
lclavicle 3.49861e-014 4.13472e-014
lhumerus -26.1888 -32.507 92.4197
lradius 57.7519
lwrist 71.0523
lhand -14.3325 -5.03308
lfingers 7.12502
lthumb 11.8085 24.614
rfemur -71.9848 -13.2311 13.6061
rtibia 81.91
rfoot -27.2062 -5.19373
rtoes 3.45101
lfemur -35.7756 8.40477 -12.4804
ltibia 66.2552
lfoot -32.7765 27.3409
ltoes -25.383
943
root 41.2376 13.8226 -0.503409 -0.472471 117.479 -23.7596
lowerback 38.9991 0.74783 3.44456
upperback 10.4549 4.05713 -0.218503
thorax -7.15559 2.66403 -3.67227
lowerneck -36.7808 1.06495 -1.54272
upperneck 27.8999 8.00113 -12.6029
head 16.9512 1.25779 -3.37839
rclavicle 3.49861e-014 -7.95139e-015
rhumerus 8.13411 37.5677 -102.097
rradius 22.6173
rwrist -21.864
rhand -19.1131 -42.9243
rfingers 7.12502
rthumb 7.196 -432.782
lclavicle 3.49861e-014 -7.95139e-015
lhumerus -26.1867 -32.3204 92.3403
lradius 57.7389
lwrist 70.8294
lhand -14.3635 -4.47865
lfingers 7.12502
lthumb 11.7786 25.1702
rfemur -72.1503 -13.2061 13.9504
rtibia 82.0766
rfoot -27.1895 -5.70299
rtoes 3.38781
lfemur -36.0564 8.43647 -12.0443
ltibia 66.1843
lfoot -33.0342 26.8432
ltoes -24.1596
944
root 41.2528 13.8237 -0.491703 0.558685 117.975 -22.776
lowerback 38.8282 0.675647 3.55843
upperback 10.4294 4.01448 -0.130545
thorax -7.13062 2.64256 -3.61709
lowerneck -36.5468 1.04043 -1.22576
upperneck 28.4905 7.8975 -12.6269
head 17.2028 1.23657 -3.49728
rclavicle -1.90833e-014 3.18055e-015
rhumerus 8.12325 38.6702 -101.84
rradius 22.7426
rwrist -21.9807
rhand -19.4314 -42.7682
rfingers 7.12502
rthumb 6.88872 -432.636
lclavicle -1.90833e-014 3.18055e-015
lhumerus -26.0716 -31.9895 92.2299
lradius 57.6432
lwrist 70.6959
lhand -14.764 -3.60138
lfingers 7.12502
lthumb 11.3924 26.0691
rfemur -72.1181 -13.1976 14.2685
rtibia 82.0561
rfoot -27.0533 -6.23914
rtoes 2.41327
lfemur -36.2595 8.36271 -11.5995
ltibia 65.9025
lfoot -33.0218 26.6347
ltoes -23.1758
945
root 41.2552 13.8194 -0.481535 0.975588 118.582 -22.4267
lowerback 38.7075 0.621486 3.67294
upperback 10.4573 3.99005 -0.221842
thorax -7.0501 2.64301 -3.7586
lowerneck -36.7892 0.659905 -1.42078
upperneck 29.8944 7.38162 -11.7955
head 17.8501 1.06939 -3.29374
rclavicle 2.22639e-014 -3.49861e-014
rhumerus 8.27083 38.8019 -101.787
rradius 22.8616
rwrist -21.4836
rhand -19.6655 -42.6539
rfingers 7.12502
rthumb 6.66272 -432.529
lclavicle 2.22639e-014 -3.49861e-014
lhumerus -25.7663 -32.2963 91.9806
lradius 57.6765
lwrist 70.8026
lhand -14.7257 -4.35347
lfingers 7.12502
lthumb 11.4293 25.315
rfemur -72.1512 -13.4199 14.2572
rtibia 82.114
rfoot -26.9318 -6.69991
rtoes 0.701106
lfemur -36.5238 8.17426 -11.5727
ltibia 65.6141
lfoot -32.8288 26.949
ltoes -23.4251
946
root 41.2893 13.8307 -0.524523 0.695384 118.079 -21.9191
lowerback 39.0878 0.810445 3.77009
upperback 10.6757 4.30357 -0.40212
thorax -6.89105 2.82489 -4.12044
lowerneck -36.8096 0.0983566 -2.11616
upperneck 31.6899 6.69964 -10.3866
head 18.6239 0.870556 -2.78116
rclavicle 4.13472e-014 1.74931e-014
rhumerus 8.34784 39.4141 -101.583
rradius 23.0531
rwrist -21.4009
rhand -20.3376 -42.6273
rfingers 7.12502
rthumb 6.01388 -432.522
lclavicle 4.13472e-014 1.74931e-014
lhumerus -25.598 -32.4915 91.8418
lradius 57.7319
lwrist 70.8186
lhand -14.893 -4.38382
lfingers 7.12502
lthumb 11.2679 25.2935
rfemur -71.0832 -12.8454 14.2142
rtibia 81.9967
rfoot -27.0481 -6.91436
rtoes -0.779624
lfemur -35.1881 8.6984 -11.4485
ltibia 65.0869
lfoot -33.1315 27.64
ltoes -23.8592
947
root 41.3452 13.8524 -0.526486 -0.188586 117.915 -21.4077
lowerback 40.3342 1.05712 3.26853
upperback 10.8513 4.57247 -0.279748
thorax -7.11014 2.97748 -3.87654
lowerneck -36.3816 -0.56537 -2.85021
upperneck 33.4044 5.85001 -8.99691
head 19.3067 0.633365 -2.28151
rclavicle -1.90833e-014 -3.49861e-014
rhumerus 8.47531 40.7955 -101.064
rradius 23.3759
rwrist -21.74
rhand -21.1222 -42.8827
rfingers 7.12502
rthumb 5.25638 -432.797
lclavicle -1.90833e-014 -3.49861e-014
lhumerus -25.4647 -32.3167 91.8581
lradius 57.7092
lwrist 70.9633
lhand -15.3602 -3.86883
lfingers 7.12502
lthumb 10.8173 25.8326
rfemur -69.079 -12.2588 14.1093
rtibia 81.9864
rfoot -27.6453 -7.27401
rtoes -1.11015
lfemur -33.0419 9.02836 -11.0026
ltibia 64.513
lfoot -33.747 27.8986
ltoes -24.159
948
root 41.345 13.8406 -0.517119 -0.534261 118.357 -21.6729
lowerback 40.2048 1.04193 2.31331
upperback 10.898 4.232 0.0571572
thorax -7.11892 2.80833 -2.89221
lowerneck -35.7864 -1.12353 -3.94623
upperneck 35.0541 5.46737 -7.79839
head 20.0151 0.513878 -1.6629
rclavicle 3.49861e-014 3.18055e-014
rhumerus 8.40488 43.3737 -100.361
rradius 23.8866
rwrist -22.0833
rhand -20.9319 -43.2928
rfingers 7.12502
rthumb 5.44007 -433.203
lclavicle 3.49861e-014 3.18055e-014
lhumerus -25.3557 -30.6758 92.1623
lradius 57.9201
lwrist 71.5815
lhand -16.4701 -2.21893
lfingers 7.12502
lthumb 9.74659 27.5355
rfemur -68.9363 -12.4596 13.8278
rtibia 82.1991
rfoot -27.8643 -7.47842
rtoes -0.681896
lfemur -32.8807 8.78962 -11.2082
ltibia 64.2382
lfoot -34.0646 28.2915
ltoes -24.603
